<svg width="203" height="53" viewBox="0 0 203 53" fill="none" xmlns="http://www.w3.org/2000/svg">
<path d="M61.824 42.4293L62.9387 42.176C64.1209 41.8044 64.8978 41.3653 65.2693 40.8587C65.6409 40.3182 65.8267 39.3387 65.8267 37.92V17.1467C65.8267 15.728 65.624 14.7484 65.2187 14.208C64.8471 13.6338 64.0871 13.1947 62.9387 12.8907L61.824 12.6373L62.3813 11.0667H72.464L73.072 11.776L72.464 12.6373C71.7209 13.6844 71.1804 14.7822 70.8427 15.9307C70.5387 17.0453 70.3867 18.4809 70.3867 20.2373V37.92C70.3867 38.8996 70.4542 39.6427 70.5893 40.1493C70.7582 40.6222 71.0453 40.9431 71.4507 41.112C71.856 41.2809 72.4809 41.3653 73.3253 41.3653H80.0133C81.2293 41.3653 82.04 41.1458 82.4453 40.7067C82.8844 40.2676 83.104 39.3387 83.104 37.92V17.1467C83.104 15.728 82.9013 14.7484 82.496 14.208C82.1244 13.6338 81.3476 13.1947 80.1653 12.8907L79.1013 12.6373L79.7093 11.0667H89.5893L90.1467 11.776L89.5893 12.6373C88.8125 13.6507 88.2551 14.7316 87.9173 15.88C87.6133 16.9947 87.4613 18.4471 87.4613 20.2373V38.224C87.4613 39.5076 87.6133 40.352 87.9173 40.7573C88.2213 41.1627 88.8462 41.3653 89.792 41.3653H97.2907C98.1013 41.3653 98.7093 41.2809 99.1147 41.112C99.52 40.9431 99.7902 40.6222 99.9253 40.1493C100.094 39.6427 100.179 38.8996 100.179 37.92V17.1467C100.179 15.728 99.976 14.7484 99.5707 14.208C99.1991 13.6338 98.4391 13.1947 97.2907 12.8907L96.2267 12.6373L96.7333 11.0667H106.816L107.424 11.776L106.816 12.6373C106.073 13.6844 105.549 14.7653 105.245 15.88C104.941 16.9947 104.789 18.4471 104.789 20.2373V38.224C104.789 39.5413 104.975 40.4702 105.347 41.0107C105.718 41.5511 106.444 41.9733 107.525 42.2773L108.488 42.5307L107.981 44H62.3813L61.824 42.4293Z" fill="white"/>
<path d="M109.758 42.4293L110.822 42.176C112.072 41.8044 112.967 41.3653 113.508 40.8587C114.048 40.3182 114.555 39.3387 115.028 37.92L122.222 17.1467C122.56 16.0658 122.729 15.3227 122.729 14.9173C122.729 14.3431 122.56 13.904 122.222 13.6C121.918 13.2622 121.412 13.0258 120.702 12.8907L119.638 12.6373L120.196 11.0667H129.012L138.284 37.616C138.79 39.0684 139.314 40.1493 139.854 40.8587C140.428 41.568 141.29 42.3618 142.438 43.24L141.83 44H131.444L130.937 42.4293L132.052 42.176C132.761 42.0071 133.268 41.7707 133.572 41.4667C133.909 41.1289 134.078 40.6729 134.078 40.0987C134.078 39.7609 133.994 39.3724 133.825 38.9333C133.69 38.4604 133.588 38.1227 133.521 37.92L131.342 31.4853H120.753L119.638 34.8293C118.963 36.9236 118.625 38.528 118.625 39.6427C118.625 40.7573 118.844 41.6862 119.284 42.4293L119.638 43.24L118.777 44H110.366L109.758 42.4293ZM121.766 28.5973H130.43L126.022 15.728L121.766 28.5973Z" fill="white"/>
<path d="M144.702 42.4293L145.816 42.176C146.965 41.872 147.725 41.4498 148.096 40.9093C148.502 40.3351 148.704 39.3387 148.704 37.92V15.2213C148.704 14.816 148.62 14.5458 148.451 14.4107C148.282 14.2418 148.029 14.1573 147.691 14.1573H145.056L144.499 12.4347C145.816 11.928 147.556 11.472 149.718 11.0667C151.879 10.6276 153.957 10.408 155.95 10.408C160.442 10.408 163.786 11.4213 165.982 13.448C168.177 15.4747 169.275 18.0924 169.275 21.3013C169.275 23.2942 168.87 25.1013 168.059 26.7227C167.282 28.344 166.066 29.6444 164.411 30.624C162.79 31.5698 160.763 32.0427 158.331 32.0427C157.25 32.0427 156.304 31.9076 155.494 31.6373C154.683 31.3333 154.278 30.928 154.278 30.4213C154.278 30.1173 154.328 29.864 154.43 29.6613C154.565 29.4249 154.75 29.3067 154.987 29.3067C155.088 29.3067 155.342 29.3742 155.747 29.5093C156.152 29.6107 156.642 29.6613 157.216 29.6613C159.513 29.6613 161.303 28.9182 162.587 27.432C163.904 25.9458 164.563 23.9698 164.563 21.504C164.563 19.0044 163.871 16.9609 162.486 15.3733C161.134 13.752 159.209 12.9413 156.71 12.9413C154.413 12.9413 153.264 13.6676 153.264 15.12V34.7787C153.264 36.6702 153.416 38.1733 153.72 39.288C154.024 40.3689 154.565 41.416 155.342 42.4293L155.95 43.24L155.342 44H145.259L144.702 42.4293Z" fill="white"/>
<path d="M169.43 42.4293L170.494 42.176C171.744 41.8044 172.639 41.3653 173.179 40.8587C173.72 40.3182 174.227 39.3387 174.699 37.92L181.894 17.1467C182.232 16.0658 182.401 15.3227 182.401 14.9173C182.401 14.3431 182.232 13.904 181.894 13.6C181.59 13.2622 181.083 13.0258 180.374 12.8907L179.31 12.6373L179.867 11.0667H188.683L197.955 37.616C198.462 39.0684 198.986 40.1493 199.526 40.8587C200.1 41.568 200.962 42.3618 202.11 43.24L201.502 44H191.115L190.609 42.4293L191.723 42.176C192.433 42.0071 192.939 41.7707 193.243 41.4667C193.581 41.1289 193.75 40.6729 193.75 40.0987C193.75 39.7609 193.666 39.3724 193.497 38.9333C193.362 38.4604 193.26 38.1227 193.193 37.92L191.014 31.4853H180.425L179.31 34.8293C178.635 36.9236 178.297 38.528 178.297 39.6427C178.297 40.7573 178.516 41.6862 178.955 42.4293L179.31 43.24L178.449 44H170.038L169.43 42.4293ZM181.438 28.5973H190.102L185.694 15.728L181.438 28.5973Z" fill="white"/>
<path d="M0 7.85185C0 3.5154 3.51539 0 7.85185 0H45.1481C49.4846 0 53 3.51539 53 7.85185V45.1481C53 49.4846 49.4846 53 45.1481 53H7.85185C3.5154 53 0 49.4846 0 45.1481V7.85185Z" fill="black"/>
<path d="M2 8C2 4.68629 4.68629 2 8 2H45C48.3137 2 51 4.68629 51 8V45C51 48.3137 48.3137 51 45 51H8C4.68629 51 2 48.3137 2 45V8Z" fill="url(#paint0_linear_87_2)"/>
<path d="M41.0741 13.2502C41.0741 15.6894 39.0966 17.6668 36.6574 17.6668C34.2181 17.6668 32.2407 15.6894 32.2407 13.2502C32.2407 10.8109 34.2181 8.8335 36.6574 8.8335C39.0966 8.8335 41.0741 10.8109 41.0741 13.2502Z" fill="black"/>
<path d="M20.8333 13.2502C20.8333 15.6894 18.8559 17.6668 16.4167 17.6668C13.9774 17.6668 12 15.6894 12 13.2502C12 10.8109 13.9774 8.8335 16.4167 8.8335C18.8559 8.8335 20.8333 10.8109 20.8333 13.2502Z" fill="black"/>
<path d="M41.0741 39.7502C41.0741 42.1894 39.0966 44.1668 36.6574 44.1668C34.2181 44.1668 32.2407 42.1894 32.2407 39.7502C32.2407 37.3109 34.2181 35.3335 36.6574 35.3335C39.0966 35.3335 41.0741 37.3109 41.0741 39.7502Z" fill="black"/>
<path d="M20.8333 39.7502C20.8333 42.1894 18.8559 44.1668 16.4167 44.1668C13.9774 44.1668 12 42.1894 12 39.7502C12 37.3109 13.9774 35.3335 16.4167 35.3335C18.8559 35.3335 20.8333 37.3109 20.8333 39.7502Z" fill="black"/>
<path d="M41.0741 26.5002C41.0741 28.9394 39.0966 30.9168 36.6574 30.9168C34.2181 30.9168 32.2407 28.9394 32.2407 26.5002C32.2407 24.0609 34.2181 22.0835 36.6574 22.0835C39.0966 22.0835 41.0741 24.0609 41.0741 26.5002Z" fill="black"/>
<path d="M20.8333 26.5002C20.8333 28.9394 18.8559 30.9168 16.4167 30.9168C13.9774 30.9168 12 28.9394 12 26.5002C12 24.0609 13.9774 22.0835 16.4167 22.0835C18.8559 22.0835 20.8333 24.0609 20.8333 26.5002Z" fill="black"/>
<defs>
<linearGradient id="paint0_linear_87_2" x1="19.067" y1="5" x2="48.9279" y2="110.88" gradientUnits="userSpaceOnUse">
<stop stop-color="white"/>
<stop offset="1" stop-color="#C2C2C2"/>
</linearGradient>
</defs>
</svg>
